<mxfile host="app.diagrams.net" modified="2021-05-16T09:58:04.845Z" agent="5.0 (Windows NT 10.0; Win64; x64) AppleWebKit/537.36 (KHTML, like Gecko) Chrome/90.0.4430.93 Safari/537.36 Edg/90.0.818.56" etag="76LgOEXePbY0wujI6Tvb" version="14.6.13" type="github">
  <diagram id="LRrfL3bHEKiN9lbMDp75" name="Page-1">
    <mxGraphModel dx="1038" dy="580" grid="1" gridSize="10" guides="1" tooltips="1" connect="1" arrows="1" fold="1" page="1" pageScale="1" pageWidth="827" pageHeight="1169" math="0" shadow="0">
      <root>
        <mxCell id="0" />
        <mxCell id="1" parent="0" />
        <mxCell id="VVSR8h6yY79pffCjmbzh-1" value="" style="curved=1;endArrow=classic;html=1;" edge="1" parent="1">
          <mxGeometry width="50" height="50" relative="1" as="geometry">
            <mxPoint x="70" y="250" as="sourcePoint" />
            <mxPoint x="130" y="260" as="targetPoint" />
            <Array as="points">
              <mxPoint x="90" y="260" />
              <mxPoint x="110" y="240" />
            </Array>
          </mxGeometry>
        </mxCell>
        <mxCell id="VVSR8h6yY79pffCjmbzh-4" value="" style="curved=1;endArrow=classic;html=1;" edge="1" parent="1">
          <mxGeometry width="50" height="50" relative="1" as="geometry">
            <mxPoint x="70" y="270" as="sourcePoint" />
            <mxPoint x="130" y="280" as="targetPoint" />
            <Array as="points">
              <mxPoint x="90" y="280" />
              <mxPoint x="110" y="260" />
            </Array>
          </mxGeometry>
        </mxCell>
        <mxCell id="VVSR8h6yY79pffCjmbzh-5" value="" style="curved=1;endArrow=classic;html=1;" edge="1" parent="1">
          <mxGeometry width="50" height="50" relative="1" as="geometry">
            <mxPoint x="70" y="320" as="sourcePoint" />
            <mxPoint x="130" y="330" as="targetPoint" />
            <Array as="points">
              <mxPoint x="90" y="330" />
              <mxPoint x="110" y="310" />
            </Array>
          </mxGeometry>
        </mxCell>
        <mxCell id="VVSR8h6yY79pffCjmbzh-6" value="" style="endArrow=none;dashed=1;html=1;dashPattern=1 3;strokeWidth=2;" edge="1" parent="1">
          <mxGeometry width="50" height="50" relative="1" as="geometry">
            <mxPoint x="70" y="299.5" as="sourcePoint" />
            <mxPoint x="130" y="299.5" as="targetPoint" />
          </mxGeometry>
        </mxCell>
        <mxCell id="VVSR8h6yY79pffCjmbzh-7" value="" style="curved=1;endArrow=classic;html=1;" edge="1" parent="1">
          <mxGeometry width="50" height="50" relative="1" as="geometry">
            <mxPoint x="70" y="340" as="sourcePoint" />
            <mxPoint x="130" y="350" as="targetPoint" />
            <Array as="points">
              <mxPoint x="90" y="350" />
              <mxPoint x="110" y="330" />
            </Array>
          </mxGeometry>
        </mxCell>
        <mxCell id="VVSR8h6yY79pffCjmbzh-8" value="合并内存请求" style="rounded=1;whiteSpace=wrap;html=1;" vertex="1" parent="1">
          <mxGeometry x="180" y="280" width="80" height="40" as="geometry" />
        </mxCell>
        <mxCell id="VVSR8h6yY79pffCjmbzh-9" value="" style="endArrow=classic;html=1;" edge="1" parent="1">
          <mxGeometry width="50" height="50" relative="1" as="geometry">
            <mxPoint x="140" y="299.5" as="sourcePoint" />
            <mxPoint x="170" y="299.5" as="targetPoint" />
          </mxGeometry>
        </mxCell>
        <mxCell id="VVSR8h6yY79pffCjmbzh-10" value="内存请求" style="text;html=1;align=center;verticalAlign=middle;resizable=0;points=[];autosize=1;strokeColor=none;" vertex="1" parent="1">
          <mxGeometry x="70" y="220" width="60" height="20" as="geometry" />
        </mxCell>
        <mxCell id="VVSR8h6yY79pffCjmbzh-15" style="edgeStyle=orthogonalEdgeStyle;rounded=0;orthogonalLoop=1;jettySize=auto;html=1;exitX=1;exitY=0.5;exitDx=0;exitDy=0;entryX=0;entryY=0.5;entryDx=0;entryDy=0;" edge="1" parent="1" source="VVSR8h6yY79pffCjmbzh-11" target="VVSR8h6yY79pffCjmbzh-13">
          <mxGeometry relative="1" as="geometry" />
        </mxCell>
        <mxCell id="VVSR8h6yY79pffCjmbzh-19" style="edgeStyle=orthogonalEdgeStyle;rounded=0;orthogonalLoop=1;jettySize=auto;html=1;exitX=0.5;exitY=0;exitDx=0;exitDy=0;" edge="1" parent="1" source="VVSR8h6yY79pffCjmbzh-11">
          <mxGeometry relative="1" as="geometry">
            <mxPoint x="170" y="240" as="targetPoint" />
            <Array as="points">
              <mxPoint x="310" y="280" />
              <mxPoint x="310" y="240" />
            </Array>
          </mxGeometry>
        </mxCell>
        <mxCell id="VVSR8h6yY79pffCjmbzh-38" style="edgeStyle=orthogonalEdgeStyle;rounded=0;orthogonalLoop=1;jettySize=auto;html=1;exitX=0.5;exitY=1;exitDx=0;exitDy=0;fillColor=#f8cecc;strokeColor=#b85450;" edge="1" parent="1" source="VVSR8h6yY79pffCjmbzh-11">
          <mxGeometry relative="1" as="geometry">
            <mxPoint x="530" y="320" as="targetPoint" />
            <Array as="points">
              <mxPoint x="325" y="360" />
              <mxPoint x="530" y="360" />
            </Array>
          </mxGeometry>
        </mxCell>
        <mxCell id="VVSR8h6yY79pffCjmbzh-11" value="L1D-cache" style="rounded=0;whiteSpace=wrap;html=1;" vertex="1" parent="1">
          <mxGeometry x="290" y="280" width="70" height="40" as="geometry" />
        </mxCell>
        <mxCell id="VVSR8h6yY79pffCjmbzh-12" value="" style="endArrow=classic;html=1;" edge="1" parent="1">
          <mxGeometry width="50" height="50" relative="1" as="geometry">
            <mxPoint x="260" y="299" as="sourcePoint" />
            <mxPoint x="290" y="299" as="targetPoint" />
          </mxGeometry>
        </mxCell>
        <mxCell id="VVSR8h6yY79pffCjmbzh-23" style="edgeStyle=orthogonalEdgeStyle;rounded=0;orthogonalLoop=1;jettySize=auto;html=1;exitX=1;exitY=0.5;exitDx=0;exitDy=0;entryX=0;entryY=0.5;entryDx=0;entryDy=0;" edge="1" parent="1" source="VVSR8h6yY79pffCjmbzh-13" target="VVSR8h6yY79pffCjmbzh-22">
          <mxGeometry relative="1" as="geometry" />
        </mxCell>
        <mxCell id="VVSR8h6yY79pffCjmbzh-13" value="MSHR" style="rounded=0;whiteSpace=wrap;html=1;" vertex="1" parent="1">
          <mxGeometry x="420" y="270" width="40" height="60" as="geometry" />
        </mxCell>
        <mxCell id="VVSR8h6yY79pffCjmbzh-16" value="miss" style="text;html=1;align=center;verticalAlign=middle;resizable=0;points=[];autosize=1;strokeColor=none;" vertex="1" parent="1">
          <mxGeometry x="370" y="280" width="40" height="20" as="geometry" />
        </mxCell>
        <mxCell id="VVSR8h6yY79pffCjmbzh-24" style="edgeStyle=orthogonalEdgeStyle;rounded=0;orthogonalLoop=1;jettySize=auto;html=1;exitX=0.5;exitY=0;exitDx=0;exitDy=0;entryX=0.75;entryY=0;entryDx=0;entryDy=0;" edge="1" parent="1" source="VVSR8h6yY79pffCjmbzh-22" target="VVSR8h6yY79pffCjmbzh-11">
          <mxGeometry relative="1" as="geometry">
            <mxPoint x="340" y="200" as="targetPoint" />
            <Array as="points">
              <mxPoint x="530" y="280" />
              <mxPoint x="530" y="240" />
              <mxPoint x="343" y="240" />
            </Array>
          </mxGeometry>
        </mxCell>
        <mxCell id="VVSR8h6yY79pffCjmbzh-28" style="edgeStyle=orthogonalEdgeStyle;rounded=0;orthogonalLoop=1;jettySize=auto;html=1;exitX=1;exitY=0.5;exitDx=0;exitDy=0;entryX=0;entryY=0.5;entryDx=0;entryDy=0;" edge="1" parent="1" source="VVSR8h6yY79pffCjmbzh-22" target="VVSR8h6yY79pffCjmbzh-27">
          <mxGeometry relative="1" as="geometry">
            <Array as="points">
              <mxPoint x="590" y="300" />
              <mxPoint x="590" y="300" />
            </Array>
          </mxGeometry>
        </mxCell>
        <mxCell id="VVSR8h6yY79pffCjmbzh-40" style="edgeStyle=orthogonalEdgeStyle;rounded=0;orthogonalLoop=1;jettySize=auto;html=1;exitX=0.75;exitY=1;exitDx=0;exitDy=0;fillColor=#f8cecc;strokeColor=#b85450;" edge="1" parent="1" source="VVSR8h6yY79pffCjmbzh-22">
          <mxGeometry relative="1" as="geometry">
            <mxPoint x="170" y="400" as="targetPoint" />
            <Array as="points">
              <mxPoint x="563" y="400" />
            </Array>
          </mxGeometry>
        </mxCell>
        <mxCell id="VVSR8h6yY79pffCjmbzh-22" value="L2-cache" style="rounded=0;whiteSpace=wrap;html=1;" vertex="1" parent="1">
          <mxGeometry x="510" y="280" width="70" height="40" as="geometry" />
        </mxCell>
        <mxCell id="VVSR8h6yY79pffCjmbzh-34" style="edgeStyle=orthogonalEdgeStyle;rounded=0;orthogonalLoop=1;jettySize=auto;html=1;exitX=0.5;exitY=0;exitDx=0;exitDy=0;entryX=0.663;entryY=-0.045;entryDx=0;entryDy=0;entryPerimeter=0;" edge="1" parent="1" source="VVSR8h6yY79pffCjmbzh-27" target="VVSR8h6yY79pffCjmbzh-22">
          <mxGeometry relative="1" as="geometry">
            <mxPoint x="590" y="200" as="targetPoint" />
            <Array as="points">
              <mxPoint x="675" y="240" />
              <mxPoint x="556" y="240" />
            </Array>
          </mxGeometry>
        </mxCell>
        <mxCell id="VVSR8h6yY79pffCjmbzh-27" value="DRAM" style="rounded=0;whiteSpace=wrap;html=1;" vertex="1" parent="1">
          <mxGeometry x="640" y="280" width="70" height="40" as="geometry" />
        </mxCell>
        <mxCell id="VVSR8h6yY79pffCjmbzh-29" value="miss" style="text;html=1;align=center;verticalAlign=middle;resizable=0;points=[];autosize=1;strokeColor=none;" vertex="1" parent="1">
          <mxGeometry x="590" y="280" width="40" height="20" as="geometry" />
        </mxCell>
        <mxCell id="VVSR8h6yY79pffCjmbzh-30" value="hit" style="text;html=1;align=center;verticalAlign=middle;resizable=0;points=[];autosize=1;strokeColor=none;" vertex="1" parent="1">
          <mxGeometry x="280" y="250" width="30" height="20" as="geometry" />
        </mxCell>
        <mxCell id="VVSR8h6yY79pffCjmbzh-33" value="hit" style="text;html=1;align=center;verticalAlign=middle;resizable=0;points=[];autosize=1;strokeColor=none;" vertex="1" parent="1">
          <mxGeometry x="500" y="250" width="30" height="20" as="geometry" />
        </mxCell>
        <mxCell id="VVSR8h6yY79pffCjmbzh-35" value="返回未命中的数据" style="text;html=1;align=center;verticalAlign=middle;resizable=0;points=[];autosize=1;strokeColor=none;" vertex="1" parent="1">
          <mxGeometry x="560" y="220" width="110" height="20" as="geometry" />
        </mxCell>
        <mxCell id="VVSR8h6yY79pffCjmbzh-36" value="返回未命中的数据" style="text;html=1;align=center;verticalAlign=middle;resizable=0;points=[];autosize=1;strokeColor=none;" vertex="1" parent="1">
          <mxGeometry x="375" y="220" width="110" height="20" as="geometry" />
        </mxCell>
        <mxCell id="VVSR8h6yY79pffCjmbzh-37" value="返回请求数据" style="text;html=1;align=center;verticalAlign=middle;resizable=0;points=[];autosize=1;strokeColor=none;" vertex="1" parent="1">
          <mxGeometry x="195" y="220" width="90" height="20" as="geometry" />
        </mxCell>
        <mxCell id="VVSR8h6yY79pffCjmbzh-39" value="一级缓存旁路" style="text;html=1;align=center;verticalAlign=middle;resizable=0;points=[];autosize=1;strokeColor=none;" vertex="1" parent="1">
          <mxGeometry x="395" y="360" width="90" height="20" as="geometry" />
        </mxCell>
        <mxCell id="VVSR8h6yY79pffCjmbzh-41" value="绕过一级缓存，返回请求数据" style="text;html=1;align=center;verticalAlign=middle;resizable=0;points=[];autosize=1;strokeColor=none;" vertex="1" parent="1">
          <mxGeometry x="284" y="400" width="170" height="20" as="geometry" />
        </mxCell>
        <mxCell id="VVSR8h6yY79pffCjmbzh-42" value="" style="endArrow=none;dashed=1;html=1;dashPattern=1 3;strokeWidth=2;" edge="1" parent="1">
          <mxGeometry width="50" height="50" relative="1" as="geometry">
            <mxPoint x="720" y="299" as="sourcePoint" />
            <mxPoint x="760" y="299" as="targetPoint" />
          </mxGeometry>
        </mxCell>
      </root>
    </mxGraphModel>
  </diagram>
</mxfile>
